<?xml version="1.0" encoding="UTF-8"?>
<svg width="776px" height="825px" viewBox="0 0 776 825" version="1.1" xmlns="http://www.w3.org/2000/svg" xmlns:xlink="http://www.w3.org/1999/xlink">
    <!-- Generator: Sketch 53.1 (72631) - https://sketchapp.com -->
    <title>Brand Mark</title>
    <desc>Created with Sketch.</desc>
    <defs>
        <linearGradient x1="15.2677706%" y1="84.0991562%" x2="86.6462411%" y2="24.5691693%" id="linearGradient-1">
            <stop stop-color="#776FB1" offset="0%"></stop>
            <stop stop-color="#B0117D" offset="100%"></stop>
        </linearGradient>
        <linearGradient x1="13.2387739%" y1="80.8837756%" x2="85.195929%" y2="21.9212099%" id="linearGradient-2">
            <stop stop-color="#776FB1" offset="0%"></stop>
            <stop stop-color="#B0117D" offset="100%"></stop>
        </linearGradient>
        <linearGradient x1="-256.862676%" y1="278.42357%" x2="236.064222%" y2="-88.0251568%" id="linearGradient-3">
            <stop stop-color="#776FB1" offset="0%"></stop>
            <stop stop-color="#B0117D" offset="100%"></stop>
        </linearGradient>
        <linearGradient x1="15.2343362%" y1="84.0991562%" x2="86.6815181%" y2="24.5691693%" id="linearGradient-4">
            <stop stop-color="#776FB1" offset="0%"></stop>
            <stop stop-color="#B0117D" offset="100%"></stop>
        </linearGradient>
        <linearGradient x1="-2.68691557%" y1="98.0107527%" x2="86.3772523%" y2="25.1775314%" id="linearGradient-5">
            <stop stop-color="#776FB1" offset="0%"></stop>
            <stop stop-color="#B0117D" offset="100%"></stop>
        </linearGradient>
    </defs>
    <g id="Brand-Mark" stroke="none" stroke-width="1" fill="none" fill-rule="evenodd">
        <g id="Group">
            <path d="M171.265164,87.8326833 C90.9236775,268.829096 -75.4600022,446.901504 38.8982032,634.381935 L38.8982032,634.381935 C153.258039,821.867259 397.949801,881.130142 585.409464,766.76778 L585.409464,766.76778 C772.862605,652.392372 832.129738,407.692437 717.768271,220.203851 L717.768271,220.203851 C642.468715,96.7612547 464.192799,0.0163098089 328.282464,1.91583334e-06 L328.282464,1.91583334e-06 C257.783503,-0.00815203071 198.707154,26.0110914 171.265164,87.8326833" id="Shape-1" fill-opacity="0.3" fill="url(#linearGradient-1)" fill-rule="nonzero"></path>
            <path d="M737.724221,349.771396 C695.221304,160.10116 440.849345,-45.1726675 316.351484,69.7941163 C313.681298,72.2587855 311.066536,74.857209 308.520241,77.6203788 C272.832984,116.33901 230.846825,152.677791 190.461475,189.618468 C93.5718439,278.243794 5.89745457,370.332054 36.5377651,507.074704 C79.9486754,700.827711 272.110827,822.67469 465.738485,779.245295 C659.356361,735.804482 781.136761,543.524404 737.724221,349.771396" id="Shape-2" fill="url(#linearGradient-2)" opacity="0.4"></path>
            <path d="M316.800773,69.377567 C271.757924,74.4866425 235.224651,95.3965965 216.631012,136.644374 C208.720317,154.199707 199.312123,172.657403 189.88032,190.150778 C230.174756,153.321323 273.17421,116.159719 308.443016,77.2542919 C310.990224,74.4922659 314.129629,71.8395855 316.800773,69.377567 Z" id="Fill-1" fill-opacity="0.620000005" fill="url(#linearGradient-3)"></path>
            <path d="M109.842338,566.94162 C199.190302,715.256224 391.884459,763.060144 540.216104,673.726374 C688.546119,584.387711 736.351112,391.737209 647.003148,243.416084 C583.547992,138.092237 425.528151,56.7575802 316.277067,69.4312689 C313.605923,71.8932874 310.990224,74.4922659 308.443016,77.2542919 C272.742968,115.956897 230.741761,152.280637 190.341935,189.206023 C123.289378,313.559154 31.5148797,436.925847 109.842338,566.94162" id="Fill-4" fill-opacity="0.699999988" fill="url(#linearGradient-4)"></path>
            <path d="M374.605572,104.267372 C340.874751,104.365187 311.098354,116.613368 290.38533,145.006061 L290.38533,145.006061 C221.05818,240.081479 109.396688,324.522679 109.254818,436.918032 L109.254818,436.918032 L109.254818,437.317446 C109.277648,456.60511 112.584687,476.714428 119.953774,497.844291 L119.953774,497.844291 C159.783376,612.041086 266.875674,683.64069 381.376197,683.761329 L381.376197,683.761329 L381.893125,683.761329 C412.093502,683.738506 442.770041,678.741744 472.893776,668.241208 L472.893776,668.241208 C617.412038,617.861132 693.71528,459.894985 643.326962,315.396456 L643.326962,315.396456 C605.873276,208.02069 474.046673,104.555928 375.433962,104.267372 L375.433962,104.267372 L374.605572,104.267372 Z" id="Shape-4" fill="url(#linearGradient-5)" opacity="0.75" style="mix-blend-mode: multiply;"></path>
        </g>
    </g>
</svg>